# xmcd CD database file
#
# Track frame offsets:
#	150
#	14612
#	29851
#	47203
#	59145
#	75937
#	87831
#	99599
#	114637
#	126431
#	134241
#	147675
#	163494
#	178026
#	192045
#	202846
#	217458
#	233297
#	253298
#
# Disc length: 3563 seconds
#
# Revision: 0
# Processed by: cddbd v1.5PL3 Copyright (c) Steve Scherf et al.
# Submitted via: CDex 1.51
#
DISCID=2f0de913
DTITLE=Glenn Miller - Grands Succès de Glenn Miller
DYEAR=1900
DGENRE=Jazz
TTITLE0=In the Mood
TTITLE1=American Patro
TTITLE2=Along The Santa Fe Trail
TTITLE3=Chattanooga Choo Choo
TTITLE4=Here We Go Again
TTITLE5=Mission To Moscow
TTITLE6=There'll Be A Hot Time In The Town Of Berlin
TTITLE7=Flying Home
TTITLE8=Moonlight Serenade
TTITLE9=Don't Be That Way
TTITLE10=It Must Be Jelly
TTITLE11=A String Of Pearls
TTITLE12=Stealing Apples
TTITLE13=Juke Box Saturday Night
TTITLE14=The Dispy Doodle
TTITLE15=Kalamazoo
TTITLE16=King Porter Stomp
TTITLE17=St Louis Blues March
TTITLE18=Farewell Blues
EXTD=
EXTT0=
EXTT1=
EXTT2=
EXTT3=
EXTT4=
EXTT5=
EXTT6=
EXTT7=
EXTT8=
EXTT9=
EXTT10=
EXTT11=
EXTT12=
EXTT13=
EXTT14=
EXTT15=
EXTT16=
EXTT17=
EXTT18=
PLAYORDER=
